<svg width="76" height="66" viewBox="0 0 76 66" fill="none" xmlns="http://www.w3.org/2000/svg">
<g clip-path="url(#clip0_2_24)">
<path d="M55.6035 0C66.6013 0 75.5175 8.91537 75.5176 19.9131C75.5176 19.9831 75.5154 20.0532 75.5146 20.123H75.5176C75.5175 25.2545 73.3795 35.7087 61.2773 46.3164C48.205 57.7742 40.1767 64.2129 37.7969 66C32.7445 62.8086 20.5476 52.911 12.4844 44.8232C5.34252 37.6596 1.12027 30.5976 0.248047 23.0635C0.0849697 22.0374 0 20.9851 0 19.9131C0.000112357 8.91544 8.91544 0.000112364 19.9131 0C27.7341 0 34.5014 4.50923 37.7588 11.0693C41.0161 4.50943 47.7827 0.000167875 55.6035 0Z" fill="#FED42B"/>
</g>
<defs>
<clipPath id="clip0_2_24">
<rect width="76" height="66" fill="white"/>
</clipPath>
</defs>
</svg>
