<svg width="55" height="55" viewBox="0 0 55 55" fill="none" xmlns="http://www.w3.org/2000/svg">
<path d="M23.48 1.52866L26.9076 1.52867C27.6248 1.50402 29.0691 1.4786 29.6497 1.52866C30.6941 1.67196 31.0207 1.52866 33.0773 2.22217C34.0849 2.56196 34.4564 2.78221 36.2381 3.33633C37.1796 3.62913 37.7891 3.87904 39.0919 4.71308C40.0816 5.3466 41.6831 6.40724 42.8314 7.26638C43.9797 8.12551 44.6544 8.7638 45.7164 10.0185C46.7784 11.2733 48.1851 13.0894 49.3906 14.727C50.5962 16.3645 51.9391 19.0052 52.4282 19.922C52.5918 20.2894 52.7218 20.5978 52.8491 20.9722C52.9763 21.3466 53.097 21.7741 53.2162 22.5415C53.3353 23.3089 53.4494 24.3837 53.4866 26.4313C53.5238 28.4788 53.4853 31.4101 53.3602 33.5253C53.2352 35.6405 53.0299 36.9013 52.8464 37.7836C52.6629 38.666 52.5059 39.155 52.0822 39.95C51.6584 40.7449 50.9772 41.8067 50.6253 42.4035C49.9789 43.4997 49.1512 44.9243 47.839 46.4801C47.0727 47.3886 46.6064 48.1365 44.8128 49.0408C43.7455 49.5789 42.9257 49.7066 42.6947 49.7066C42.1174 49.9764 41.7753 50.142 40.6404 50.5905C39.5056 51.039 37.6348 51.7488 36.3984 52.2088C35.1619 52.6688 34.5829 52.896 33.8909 53.0504C32.4389 53.3742 30.9131 53.5625 29.4834 53.4809C28.7882 53.4411 28.1533 53.364 26.6661 53.0963C25.1788 52.8286 22.9037 52.4043 21.6946 52.1326C20.3297 51.8259 19.7726 51.6346 18.9276 51.2518C17.2436 50.4889 16.7084 50.4032 16.5642 50.4032C15.9633 50.2795 15.5008 50.095 14.7949 49.8135L14.7506 49.7958C14.0196 49.5043 13.056 49.1224 12.3375 48.8086C11.1596 48.2561 9.97668 47.4625 8.82461 46.6327C8.00275 46.0407 7.40139 45.6916 5.48492 43.9263C4.62035 43.1299 4.05165 42.578 3.80053 42.1351C3.59851 41.7788 3.07571 40.3072 2.48399 37.7898C1.94233 35.4854 1.67145 34.2224 1.60837 33.6416C1.49269 32.5767 1.4912 30.8881 1.5076 28.8472C1.52407 26.7961 1.52408 25.7716 1.52408 25.7641C1.68884 25.6211 1.75372 25.5326 1.78769 25.1307C1.82462 24.0349 1.93709 22.6534 2.65656 20.337C3.01838 19.3914 3.57555 18.0495 3.96528 17.1869C4.35501 16.3244 4.46178 16.2752 5.65664 14.0117C7.12701 11.2263 8.39871 9.15716 11.1408 6.38312C13.9672 3.52371 15.5413 3.28136 16.6249 2.91558C17.0057 2.78703 18.7612 2.60422 20.0525 2.22217C22.0703 1.62515 22.618 1.52863 23.48 1.52866Z" fill="#FF2F00" stroke="#FF2F00" stroke-width="3" stroke-linecap="round"/>
<path d="M15.899 19.0822C15.899 19.0983 15.899 20.0846 15.8392 22.801C15.8009 24.5402 15.6597 27.009 15.5054 28.7742C15.264 31.536 14.9512 32.7484 14.9131 33.1162C14.8853 33.3839 14.8843 34.1614 14.8995 34.8088C14.9402 36.5306 15.3256 31.8688 15.6145 30.5472C15.8434 29.4999 16.1575 27.6407 16.7806 26.4547C17.369 25.3347 17.979 24.7781 18.3678 24.4334C18.7115 24.1286 19.3125 23.9789 19.9617 23.8798C21.13 23.7013 21.7844 24.1441 22.2839 24.4233C22.6797 24.6446 22.9312 25.0296 23.2339 25.5241C23.6963 26.2797 23.5768 27.3013 23.6159 29.2463C23.6417 30.5333 23.7331 32.4282 23.7837 33.5173C23.8344 34.6064 23.8553 34.8319 23.8735 35.0137C23.8918 35.1956 23.9068 35.3269 23.9223 35.437M30.5267 19.7255L30.5295 20.9665C30.5322 22.1749 30.5378 24.5748 30.5899 27.3683C30.642 30.1617 30.7404 33.276 30.7877 34.0967C30.8308 34.8431 30.9738 30.6876 31.2547 28.9504C31.5523 27.1107 32.4508 26.0094 32.8915 25.5835C33.3247 25.1649 34.0443 24.9123 34.7794 24.6136C35.8987 24.1587 37.8606 24.6808 38.9259 25.4199C39.5802 25.8738 39.8125 26.765 40.1445 29.2591C40.1541 31.6899 40.0945 33.336 40.0383 33.8296C40.0138 34.1343 39.9977 34.5494 39.9249 35.2186" stroke="white" stroke-width="3" stroke-linecap="round"/>
</svg>
